<svg version="1.1" viewBox="0 0 96 96" xmlns="http://www.w3.org/2000/svg" xmlns:xlink="http://www.w3.org/1999/xlink" id="Icons_Blind" overflow="hidden"><style>
.MsftOfcThm_Background1_Fill {
 fill:#FFFFFF; 
}
</style>
<path d=" M 50.54 37.91 C 46.0782 36.4685 41.2926 38.917 39.8511 43.3789 C 39.5776 44.2256 39.4388 45.1101 39.44 46 C 39.4372 46.883 39.5756 47.7607 39.85 48.6 Z" stroke="none" stroke-width="1" stroke-dasharray="" stroke-dashoffset="1" fill="#FFFFFF" fill-opacity="1"/><path d=" M 26.73 61.72 L 31.12 57.33 C 26.126 54.5118 21.5319 51.0376 17.46 47 C 19.6428 44.5896 21.9812 42.3248 24.46 40.22 C 27.4808 37.6279 30.7812 35.3807 34.3 33.52 C 28.6182 39.7069 27.8447 48.9553 32.42 56 L 35.1 53.32 C 31.0581 46.2218 33.5357 37.191 40.6338 33.1491 C 45.1777 30.5617 50.75 30.5658 55.29 33.16 L 61.57 26.88 C 57.2916 24.9114 52.649 23.8589 47.94 23.79 C 31.39 23.79 17.28 38.17 11.94 44.44 C 10.568 46.06 10.6282 48.4511 12.08 50 C 16.4359 54.5238 21.3603 58.4634 26.73 61.72 Z" stroke="none" stroke-width="1" stroke-dasharray="" stroke-dashoffset="1" fill="#FFFFFF" fill-opacity="1"/><path d=" M 69.71 31.47 L 85.06 16.12 L 80.82 11.88 L 12.82 79.88 L 17.06 84.12 L 35.33 65.85 C 39.3633 67.3655 43.6315 68.1609 47.94 68.2 C 64.33 68.2 78.32 55.67 83.8 50 C 85.265 48.4647 85.351 46.0766 84 44.44 C 79.8064 39.5278 75.0044 35.1694 69.71 31.47 Z M 47.94 60.8 C 45.801 60.8042 43.6874 60.3364 41.75 59.43 L 46.75 54.43 C 47.1376 54.4856 47.5285 54.5157 47.92 54.52 C 52.6121 54.5145 56.4145 50.7121 56.42 46.02 C 56.4153 45.6285 56.3852 45.2377 56.33 44.85 L 61.33 39.85 C 64.7652 47.2547 61.5473 56.0422 54.1426 59.4775 C 52.1867 60.3848 50.0561 60.8533 47.9 60.85 Z M 60.78 59.3 C 66.8082 53.5087 68.1721 44.3804 64.1 37.08 L 65.4 35.78 C 70.1935 38.9704 74.5619 42.7575 78.4 47.05 C 74.71 50.63 68.39 56 60.78 59.3 Z" stroke="none" stroke-width="1" stroke-dasharray="" stroke-dashoffset="1" fill="#FFFFFF" fill-opacity="1"/></svg>